<?xml version="1.0" standalone="no"?>
<!DOCTYPE svg PUBLIC "-//W3C//DTD SVG 20010904//EN"
 "http://www.w3.org/TR/2001/REC-SVG-20010904/DTD/svg10.dtd">
<svg version="1.0" xmlns="http://www.w3.org/2000/svg"
 width="700.000000pt" height="700.000000pt" viewBox="0 0 700.000000 700.000000"
 preserveAspectRatio="xMidYMid meet">
<metadata>
Created by potrace 1.14, written by Peter Selinger 2001-2017
</metadata>
<g transform="translate(0.000000,700.000000) scale(0.100000,-0.100000)"
fill="#000000" stroke="none">
<path d="M1023 5232 c-21 -3 -22 -7 -22 -123 l-1 -119 214 0 c162 0 215 -3
218 -12 2 -7 3 -663 3 -1458 l-1 -1445 -194 -1 c-107 -1 -205 -2 -217 -3 -22
-1 -22 -4 -21 -121 l0 -120 1364 0 1364 0 0 425 c0 398 -1 425 -17 426 -21 1
-232 1 -250 0 -10 -1 -13 -65 -13 -286 l0 -285 -775 0 -775 0 -1 23 c0 12 -1
660 -2 1439 l-2 1418 218 0 217 0 0 123 0 122 -642 0 c-354 0 -653 -1 -665 -3z"/>
<path d="M4869 4316 c-2 -2 -30 -7 -62 -10 -232 -27 -445 -134 -563 -285 -91
-115 -125 -218 -129 -386 -5 -193 36 -307 152 -422 116 -115 214 -162 628
-303 132 -44 269 -92 304 -106 280 -110 375 -217 367 -417 -8 -215 -133 -336
-395 -382 -98 -17 -305 -12 -406 9 -94 21 -205 72 -258 120 -90 82 -154 228
-156 359 l-1 37 -123 0 -122 0 0 -282 0 -282 108 -44 c113 -45 313 -106 382
-116 22 -3 51 -8 65 -10 102 -19 232 -29 360 -29 338 1 606 87 774 247 149
144 209 298 201 524 -6 162 -56 282 -162 388 -123 123 -267 194 -593 294 -419
128 -580 197 -652 279 -54 63 -79 129 -80 211 -1 119 31 202 104 265 94 82
228 118 433 117 237 -1 405 -79 506 -234 35 -55 67 -154 72 -225 2 -39 4 -39
137 -38 l105 0 3 265 2 265 -82 32 c-297 113 -487 154 -744 159 -94 2 -173 2
-175 0z"/>
</g>
</svg>
