<svg version="1" xmlns="http://www.w3.org/2000/svg" width="1365.333" height="1365.333" viewBox="0 0 1024.000000 1024.000000"><path d="M836.1 216.2c-2.7 4-7.1 10.5-9.7 14.4-2.7 3.8-13.4 19.5-23.9 34.7-10.4 15.3-24.2 35.3-30.5 44.5-24.2 35-27 39.2-27 39.7 0 .3 9.9.5 21.9.5 20.5 0 22.1-.1 23.3-1.9 1.2-1.6 9.9-11.4 20.3-22.6 1.7-1.8 4.5-5 6.4-7.1 5.1-5.7 19.4-21.5 21.1-23.4 2.2-2.3 16-17.7 21.1-23.4 2.4-2.7 5.3-5.9 6.4-7 1.1-1.2 6-6.6 11-12.1 4.9-5.5 10.3-11.5 12-13.4 1.6-1.8 3.9-4.3 5-5.5 1.1-1.3 6.1-6.7 11-12.1 5-5.3 9.4-10.4 9.8-11.1.7-1.2-5-1.4-36.2-1.4h-37l-5 7.2zM101.4 265l-.1 20H172.6v239.7l-.1 239.8-35.5.5-35.6.5v19.7l-.1 19.8H550.6V665h-46.1v93.5l-127.7.3C249.5 759 249 759 249 757c-.1-2.6-.1-463.9 0-468.5V285h71v-40H101.4v20zM737.5 396.1c-12.7 1.3-25.6 3.8-36.8 6.9-12 3.3-13 3.8-25.2 9.6-34.8 16.6-55.6 44-61.4 80.9-1.1 6.5-.8 33.1.3 38 4.8 20.7 10.8 32.5 23.1 45 7.7 8 15.8 14 26.8 20.3 16.8 9.6 26.1 13.1 93.7 35.9 48.3 16.2 70.4 27 81.5 39.6 4.6 5.3 10.8 16.7 11.9 22.2.4 1.6.9 4.1 1.1 5.5.3 1.4.6 6.1.6 10.6 0 21.9-9 40.5-25.1 51.4-10.3 7-24.9 12.5-38.2 14.5-1.8.2-5.9.9-9 1.3-7.5 1.2-34.4 1.2-43.3.2-11.5-1.4-14.5-1.9-15.3-2.4-.4-.2-2.4-.7-4.4-1-8.2-1.3-22.1-7-31.8-13.1-7.6-4.7-18.1-16.3-22.7-25.2-6.7-12.5-10.8-28.1-11.2-42.6l-.1-3.7h-39.9v92.8l3.4 1.6c18.8 8.9 51.6 19.5 76.5 24.6 11.7 2.4 12.2 2.5 20 3.5 3 .3 6.1.8 6.8 1 3.1 1.1 22.5 2 41.7 2 20.9 0 33.9-.7 43.8-2.5 2.9-.5 6.3-1.1 7.7-1.4 1.4-.2 3.6-.7 5-1 1.4-.3 3.6-.8 5-1 1.4-.3 5.7-1.4 9.5-2.5 44.9-12.8 77.6-42.1 87.5-78.5 3.8-13.7 4.8-22 4.4-37-.6-28.8-8.5-48.6-26.4-66.7-13.3-13.5-28.2-23.1-49.5-31.9-5.5-2.3-10.9-4.5-12-5-3.8-1.6-14.2-4.9-35-11.4-45.9-14.2-54.5-17-67.7-22.2-39.8-15.7-53.4-30.4-54.3-58.5-1.3-36 19.1-56.1 63-62.4 8.4-1.2 39.5-1.4 45.5-.2 1.4.2 4.4.8 6.8 1.1 6.5 1.1 18.4 5.2 26 9 13.9 7 24.8 17.3 32.5 30.6 2.5 4.3 7.6 18.3 8.3 22.5.7 4.4 1.5 11.2 1.7 14l.2 3 20 .3 20 .2v-87l-12.5-4.9c-23.3-9.1-53.8-18.3-71-21.4-1.4-.3-4.1-.8-6-1.2-5.8-1.1-7.3-1.3-13-2-3-.3-6.8-.9-8.5-1.1-5.4-1-45.8-1.1-54-.3z"/></svg>